<?xml version="1.0" encoding="UTF-8"?> <svg xmlns="http://www.w3.org/2000/svg" width="48" height="48" viewBox="0 0 48 48" fill="none"> <path d="M48 0H0V48H48V0Z" fill="#CD412B"></path> <path d="M23.9727 11.0103C25.5796 11.0103 26.9676 9.98574 27.4662 8.47852C26.5149 8.74037 25.3024 8.89841 23.9727 8.89841C22.6431 8.89841 21.4306 8.74037 20.4795 8.47852C20.9778 9.98562 22.3657 11.0103 23.9727 11.0103Z" fill="#1E2020"></path> <path d="M42.4758 12.8638C42.3994 12.6497 42.2406 12.4736 42.0338 12.3777L34.9611 9.11266C33.4566 8.60301 31.9239 8.20044 30.3763 7.9062C30.3218 7.89553 30.2676 7.89038 30.2141 7.89038C29.831 7.89038 29.4879 8.15487 29.4025 8.54276C28.8374 11.0307 26.635 12.8935 23.9733 12.8935C21.3117 12.8935 19.1092 11.0309 18.5442 8.54276C18.4578 8.15487 18.1153 7.89038 17.7325 7.89038C17.679 7.89038 17.6248 7.89553 17.5703 7.9062C16.0228 8.20044 14.4901 8.60301 12.9832 9.11266L5.91304 12.3775C5.70492 12.4734 5.54499 12.6496 5.47231 12.8637C5.39712 13.0804 5.41068 13.3142 5.51662 13.5186L8.58706 19.5781C8.73079 19.8657 9.02315 20.0383 9.33245 20.0383C9.41229 20.0383 9.49326 20.0268 9.57309 20.0028L12.9833 18.992V39.324C12.9833 39.7857 13.3601 40.1623 13.823 40.1623H34.1239C34.5856 40.1623 34.9612 39.7856 34.9612 39.324V18.9923L38.3738 20.0031C38.4537 20.027 38.5345 20.0386 38.6142 20.0386C38.9229 20.0386 39.2141 19.866 39.3599 19.5784L42.4314 13.5189C42.5349 13.3144 42.5497 13.0805 42.4758 12.8638Z" fill="#1E2020"></path> </svg> 